<svg viewBox="0 0 720 520" xmlns="http://www.w3.org/2000/svg" style="max-width: 720px; font-family: system-ui, -apple-system, sans-serif;">
  <defs>
    <marker id="arrow" markerWidth="10" markerHeight="10" refX="9" refY="3" orient="auto" markerUnits="strokeWidth">
      <path d="M0,0 L0,6 L9,3 z" fill="#64748b"/>
    </marker>
    <marker id="arrow-blue" markerWidth="10" markerHeight="10" refX="9" refY="3" orient="auto" markerUnits="strokeWidth">
      <path d="M0,0 L0,6 L9,3 z" fill="#3b82f6"/>
    </marker>
    <marker id="arrow-green" markerWidth="10" markerHeight="10" refX="9" refY="3" orient="auto" markerUnits="strokeWidth">
      <path d="M0,0 L0,6 L9,3 z" fill="#22c55e"/>
    </marker>
  </defs>

  <!-- Background -->
  <rect x="0" y="0" width="720" height="520" fill="#fafafa"/>

  <!-- Row 1: Main flow boxes -->
  <rect x="20" y="20" width="130" height="70" rx="6" fill="#f1f5f9" stroke="#94a3b8" stroke-width="1.5"/>
  <text x="85" y="48" text-anchor="middle" font-size="11" font-weight="600" fill="#334155">Demo.CLI</text>
  <text x="85" y="66" text-anchor="middle" font-size="9" fill="#64748b">1. run()</text>

  <rect x="190" y="20" width="130" height="70" rx="6" fill="#f1f5f9" stroke="#94a3b8" stroke-width="1.5"/>
  <text x="255" y="48" text-anchor="middle" font-size="11" font-weight="600" fill="#334155">SandboxRunner</text>
  <text x="255" y="66" text-anchor="middle" font-size="9" fill="#64748b">2. create</text>

  <rect x="360" y="20" width="130" height="70" rx="6" fill="#eff6ff" stroke="#3b82f6" stroke-width="1.5"/>
  <text x="425" y="48" text-anchor="middle" font-size="11" font-weight="600" fill="#1e40af">Sandbox Library</text>
  <text x="425" y="66" text-anchor="middle" font-size="9" fill="#64748b">3. compile</text>

  <rect x="530" y="20" width="130" height="70" rx="6" fill="#f0fdf4" stroke="#22c55e" stroke-width="1.5"/>
  <text x="595" y="48" text-anchor="middle" font-size="11" font-weight="600" fill="#166534">DemoSandbox</text>
  <text x="595" y="66" text-anchor="middle" font-size="9" fill="#64748b">4. start (in sandbox)</text>

  <!-- Row 1 arrows -->
  <line x1="150" y1="55" x2="185" y2="55" stroke="#64748b" stroke-width="1.5" marker-end="url(#arrow)"/>
  <line x1="320" y1="55" x2="355" y2="55" stroke="#64748b" stroke-width="1.5" marker-end="url(#arrow)"/>
  <line x1="490" y1="55" x2="525" y2="55" stroke="#64748b" stroke-width="1.5" marker-end="url(#arrow)"/>

  <!-- Vertical lines from CLI and SandboxRunner -->
  <line x1="85" y1="90" x2="85" y2="480" stroke="#e2e8f0" stroke-width="1" stroke-dasharray="4,4"/>
  <line x1="255" y1="90" x2="255" y2="360" stroke="#e2e8f0" stroke-width="1" stroke-dasharray="4,4"/>
  <line x1="595" y1="90" x2="595" y2="260" stroke="#e2e8f0" stroke-width="1" stroke-dasharray="4,4"/>

  <!-- Step 5: Hot Reload -->
  <rect x="195" y="120" width="120" height="50" rx="5" fill="#fef3c7" stroke="#f59e0b" stroke-width="1.5"/>
  <text x="255" y="142" text-anchor="middle" font-size="10" font-weight="600" fill="#92400e">5. hot reload</text>
  <text x="255" y="158" text-anchor="middle" font-size="9" fill="#78350f">load new code</text>

  <!-- Step 6 & 7: Run answer() -->
  <rect x="195" y="195" width="120" height="50" rx="5" fill="#f1f5f9" stroke="#94a3b8" stroke-width="1.5"/>
  <text x="255" y="217" text-anchor="middle" font-size="10" font-weight="600" fill="#334155">6. run answer()</text>
  <text x="255" y="233" text-anchor="middle" font-size="9" fill="#64748b">execute in sandbox</text>

  <rect x="535" y="195" width="120" height="50" rx="5" fill="#f0fdf4" stroke="#22c55e" stroke-width="1.5"/>
  <text x="595" y="217" text-anchor="middle" font-size="10" font-weight="600" fill="#166534">7. call answer()</text>
  <text x="595" y="233" text-anchor="middle" font-size="9" fill="#64748b">returns value</text>

  <!-- Arrow from 6 to 7 -->
  <line x1="315" y1="220" x2="530" y2="220" stroke="#64748b" stroke-width="1.5" marker-end="url(#arrow)"/>

  <!-- Return arrow with 42 -->
  <line x1="530" y1="235" x2="320" y2="235" stroke="#22c55e" stroke-width="1.5" marker-end="url(#arrow-green)"/>
  <rect x="400" y="250" width="40" height="22" rx="4" fill="#dcfce7" stroke="#22c55e" stroke-width="1"/>
  <text x="420" y="265" text-anchor="middle" font-size="11" font-weight="700" fill="#166534">42</text>

  <!-- Step 8: Config skill -->
  <rect x="195" y="295" width="120" height="50" rx="5" fill="#eff6ff" stroke="#3b82f6" stroke-width="1.5"/>
  <text x="255" y="317" text-anchor="middle" font-size="10" font-weight="600" fill="#1e40af">8. store sandbox id</text>
  <text x="255" y="333" text-anchor="middle" font-size="9" fill="#64748b">set sandbox_id</text>

  <!-- Step 9: Start operator -->
  <rect x="195" y="370" width="120" height="50" rx="5" fill="#eff6ff" stroke="#3b82f6" stroke-width="1.5"/>
  <text x="255" y="392" text-anchor="middle" font-size="10" font-weight="600" fill="#1e40af">9. start operator</text>
  <text x="255" y="408" text-anchor="middle" font-size="9" fill="#64748b">Beamlens</text>

  <!-- Step 10: LLM Query -->
  <rect x="370" y="370" width="120" height="50" rx="5" fill="#faf5ff" stroke="#a855f7" stroke-width="1.5"/>
  <text x="430" y="392" text-anchor="middle" font-size="10" font-weight="600" fill="#7e22ce">10. LLM query</text>
  <text x="430" y="408" text-anchor="middle" font-size="9" fill="#64748b">AI analysis</text>

  <!-- Step 11: Snapshot callback -->
  <rect x="370" y="445" width="120" height="50" rx="5" fill="#eff6ff" stroke="#3b82f6" stroke-width="1.5"/>
  <text x="430" y="467" text-anchor="middle" font-size="10" font-weight="600" fill="#1e40af">11. snapshot</text>
  <text x="430" y="483" text-anchor="middle" font-size="9" fill="#64748b">callback</text>

  <!-- Step 12: Print results -->
  <rect x="25" y="445" width="120" height="50" rx="5" fill="#f1f5f9" stroke="#94a3b8" stroke-width="1.5"/>
  <text x="85" y="467" text-anchor="middle" font-size="10" font-weight="600" fill="#334155">12. print results</text>
  <text x="85" y="483" text-anchor="middle" font-size="9" fill="#64748b">output summary</text>

  <!-- Vertical arrows -->
  <line x1="255" y1="170" x2="255" y2="190" stroke="#64748b" stroke-width="1.5" marker-end="url(#arrow)"/>
  <line x1="255" y1="245" x2="255" y2="290" stroke="#64748b" stroke-width="1.5" marker-end="url(#arrow)"/>
  <line x1="255" y1="345" x2="255" y2="365" stroke="#64748b" stroke-width="1.5" marker-end="url(#arrow)"/>

  <!-- Horizontal arrows -->
  <line x1="315" y1="395" x2="365" y2="395" stroke="#3b82f6" stroke-width="1.5" marker-end="url(#arrow-blue)"/>
  <line x1="430" y1="420" x2="430" y2="440" stroke="#3b82f6" stroke-width="1.5" marker-end="url(#arrow-blue)"/>

  <!-- Return to print results -->
  <path d="M 195 395 L 150 395 L 150 470 L 145 470" fill="none" stroke="#64748b" stroke-width="1.5" marker-end="url(#arrow)"/>
</svg>
